<svg width="58" height="58" viewBox="0 0 58 58" fill="none" xmlns="http://www.w3.org/2000/svg">
<path d="M58 28.9876C58 28.9627 58 28.9254 58 28.9005C58 28.7014 58 28.5024 57.9876 28.3157C57.9876 28.2038 57.9751 28.0918 57.9751 27.9674C57.9751 27.8554 57.9627 27.7435 57.9627 27.6315C57.9502 27.4946 57.9502 27.3578 57.9378 27.2209C57.9378 27.1338 57.9253 27.0468 57.9253 26.9597C57.9129 26.8104 57.9004 26.6611 57.888 26.5118C57.888 26.4496 57.8755 26.3749 57.8755 26.3127C57.8631 26.151 57.8382 25.9893 57.8258 25.8151C57.8258 25.7778 57.8133 25.728 57.8133 25.6907C56.1704 11.2342 43.8983 0 29 0C14.1017 0 1.82961 11.2342 0.186695 25.7031C0.186695 25.7405 0.174249 25.7902 0.174249 25.8275C0.161803 25.9893 0.13691 26.151 0.124464 26.3252C0.112017 26.3874 0.112017 26.462 0.112017 26.5242C0.0995708 26.6735 0.0871245 26.8228 0.0746782 26.9721C0.0746782 27.0592 0.0622318 27.1463 0.0622318 27.2334C0.0497854 27.3702 0.0497853 27.5071 0.037339 27.6439C0.037339 27.7559 0.0248928 27.8679 0.0248928 27.9798C0.0248928 28.0918 0.0124464 28.2038 0.0124464 28.3282C0.0124464 28.5272 0 28.7263 0 28.9129C0 28.9378 0 28.9751 0 29C0 29 0 29 0 29.0124C0 29.0249 0 29.0124 0 29.0249C0 29.0498 0 29.0871 0 29.112C0 29.311 4.72936e-08 29.5101 0.0124464 29.6967C0.0124464 29.8087 0.0248928 29.9206 0.0248928 30.045C0.0248928 30.157 0.037339 30.269 0.037339 30.381C0.0497853 30.5178 0.0497854 30.6547 0.0622318 30.7915C0.0622318 30.8786 0.0746782 30.9657 0.0746782 31.0528C0.0871245 31.2021 0.0995708 31.3514 0.112017 31.5006C0.112017 31.5628 0.124464 31.6375 0.124464 31.6997C0.13691 31.8614 0.161803 32.0232 0.174249 32.1973C0.174249 32.2347 0.186695 32.2844 0.186695 32.3218C1.82961 46.7658 14.1017 58 29 58C43.8983 58 56.1704 46.7658 57.8133 32.3093C57.8133 32.272 57.8258 32.2222 57.8258 32.1849C57.8382 32.0232 57.8631 31.8614 57.8755 31.6873C57.888 31.6251 57.888 31.5504 57.888 31.4882C57.9004 31.3389 57.9129 31.1896 57.9253 31.0403C57.9253 30.9532 57.9378 30.8661 57.9378 30.7791C57.9502 30.6422 57.9502 30.5054 57.9627 30.3685C57.9627 30.2565 57.9751 30.1446 57.9751 30.0326C57.9751 29.9206 57.9876 29.8087 57.9876 29.6843C57.9876 29.4852 58 29.2861 58 29.0995C58 29.0746 58 29.0373 58 29.0124C58 29 58 29 58 28.9876C58 29 58 29 58 28.9876Z" fill="#63A162"/>
<path fill-rule="evenodd" clip-rule="evenodd" d="M45 21.6342L24.7509 41L22 38.3658L42.2491 19L45 21.6342Z" fill="white"/>
<path fill-rule="evenodd" clip-rule="evenodd" d="M17.7491 29L28 38.4624L25.2509 41L15 31.5376L17.7491 29Z" fill="white"/>
</svg>
